<?xml version="1.0" encoding="UTF-8" standalone="yes"?><svg xmlns="http://www.w3.org/2000/svg" xmlns:xlink="http://www.w3.org/1999/xlink" height="1632px" style="width:1053px;height:1632px;" version="1.1" viewBox="0 0 1053 1632" width="1053px"><defs><filter height="300%" id="f1" width="300%" x="-1" y="-1"><feGaussianBlur result="blurOut" stdDeviation="2.0"/><feColorMatrix in="blurOut" result="blurOut2" type="matrix" values="0 0 0 0 0 0 0 0 0 0 0 0 0 0 0 0 0 0 .4 0"/><feOffset dx="4.0" dy="4.0" in="blurOut2" result="blurOut3"/><feBlend in="SourceGraphic" in2="blurOut3" mode="normal"/></filter></defs><g><text fill="#000000" font-family="sans-serif" font-size="18" lengthAdjust="spacingAndGlyphs" textLength="454" x="300.25" y="27.4023">Getting Things Done &amp; Pomodor Technique for LPSS</text><ellipse cx="368.75" cy="41.1992" fill="#000000" filter="url(#f1)" rx="10" ry="10" style="stroke: none; stroke-width: 1.0;"/><polygon fill="#FBFB77" filter="url(#f1)" points="139.75,61.1992,139.75,173.0625,314.75,173.0625,314.75,71.1992,304.75,61.1992,139.75,61.1992" style="stroke: #A80036; stroke-width: 1.0;"/><polygon fill="#FBFB77" points="139.75,61.1992,139.75,173.0625,314.75,173.0625,314.75,121.1309,334.75,117.1309,314.75,113.1309,314.75,71.1992,304.75,61.1992,139.75,61.1992" style="stroke: #A80036; stroke-width: 1.0;"/><line style="stroke: #A80036; stroke-width: 1.0;" x1="304.75" x2="304.75" y1="61.1992" y2="71.1992"/><line style="stroke: #A80036; stroke-width: 1.0;" x1="314.75" x2="304.75" y1="71.1992" y2="71.1992"/><text fill="#000000" font-family="sans-serif" font-size="13" font-weight="bold" lengthAdjust="spacingAndGlyphs" textLength="91" x="145.75" y="78.7676">未來的所有工作</text><line style="stroke: #A80036; stroke-width: 1.0;" x1="139.75" x2="314.75" y1="86.5098" y2="86.5098"/><line style="stroke: #A80036; stroke-width: 1.0;" x1="139.75" x2="314.75" y1="88.5098" y2="88.5098"/><ellipse cx="151.25" cy="99.3203" fill="#000000" rx="2.5" ry="2.5" style="stroke: #000000; stroke-width: 0.0;"/><text fill="#000000" font-family="sans-serif" font-size="13" lengthAdjust="spacingAndGlyphs" textLength="39" x="156.75" y="104.0781">簽回條</text><ellipse cx="151.25" cy="114.6309" fill="#000000" rx="2.5" ry="2.5" style="stroke: #000000; stroke-width: 0.0;"/><text fill="#000000" font-family="sans-serif" font-size="13" lengthAdjust="spacingAndGlyphs" textLength="26" x="156.75" y="119.3887">溫習</text><ellipse cx="151.25" cy="129.9414" fill="#000000" rx="2.5" ry="2.5" style="stroke: #000000; stroke-width: 0.0;"/><text fill="#000000" font-family="sans-serif" font-size="13" lengthAdjust="spacingAndGlyphs" textLength="117" x="156.75" y="134.6992">功課、工作紙、改正</text><ellipse cx="151.25" cy="145.252" fill="#000000" rx="2.5" ry="2.5" style="stroke: #000000; stroke-width: 0.0;"/><text fill="#000000" font-family="sans-serif" font-size="13" lengthAdjust="spacingAndGlyphs" textLength="143" x="156.75" y="150.0098">默書、小測、統測、考試</text><ellipse cx="151.25" cy="160.5625" fill="#000000" rx="2.5" ry="2.5" style="stroke: #000000; stroke-width: 0.0;"/><text fill="#000000" font-family="sans-serif" font-size="13" lengthAdjust="spacingAndGlyphs" textLength="26" x="156.75" y="165.3203">滙報</text><rect fill="#FEFECE" filter="url(#f1)" height="34.1328" rx="12.5" ry="12.5" style="stroke: #A80036; stroke-width: 1.5;" width="68" x="334.75" y="100.0645"/><text fill="#000000" font-family="sans-serif" font-size="12" lengthAdjust="spacingAndGlyphs" textLength="48" x="344.75" y="121.666">收集事項</text><rect fill="#FEFECE" filter="url(#f1)" height="34.1328" rx="12.5" ry="12.5" style="stroke: #A80036; stroke-width: 1.5;" width="92" x="322.75" y="193.0625"/><text fill="#000000" font-family="sans-serif" font-size="12" lengthAdjust="spacingAndGlyphs" textLength="72" x="332.75" y="214.6641">估計完成時間</text><polygon fill="#FEFECE" filter="url(#f1)" points="337.75,247.1953,399.75,247.1953,411.75,259.1953,399.75,271.1953,337.75,271.1953,325.75,259.1953,337.75,247.1953" style="stroke: #A80036; stroke-width: 1.5;"/><text fill="#000000" font-family="sans-serif" font-size="11" lengthAdjust="spacingAndGlyphs" textLength="62" x="337.75" y="263.3525">2分鐘內完成</text><text fill="#000000" font-family="sans-serif" font-size="11" lengthAdjust="spacingAndGlyphs" textLength="18" x="307.75" y="256.875">yes</text><text fill="#000000" font-family="sans-serif" font-size="11" lengthAdjust="spacingAndGlyphs" textLength="14" x="411.75" y="256.875">no</text><rect fill="#FEFECE" filter="url(#f1)" height="34.1328" rx="12.5" ry="12.5" style="stroke: #A80036; stroke-width: 1.5;" width="44" x="10" y="281.1953"/><text fill="#000000" font-family="sans-serif" font-size="12" lengthAdjust="spacingAndGlyphs" textLength="24" x="20" y="302.7969">先做</text><ellipse cx="32" cy="360.3281" fill="none" filter="url(#f1)" rx="10" ry="10" style="stroke: #000000; stroke-width: 1.0;"/><ellipse cx="32.5" cy="360.8281" fill="#000000" filter="url(#f1)" rx="6" ry="6" style="stroke: none; stroke-width: 1.0;"/><polygon fill="#FBFB77" filter="url(#f1)" points="801.5,281.1953,801.5,377.748,1044.5,377.748,1044.5,291.1953,1034.5,281.1953,801.5,281.1953" style="stroke: #A80036; stroke-width: 1.0;"/><polygon fill="#FBFB77" points="801.5,281.1953,801.5,325.4717,781.5,329.4717,801.5,333.4717,801.5,377.748,1044.5,377.748,1044.5,291.1953,1034.5,281.1953,801.5,281.1953" style="stroke: #A80036; stroke-width: 1.0;"/><line style="stroke: #A80036; stroke-width: 1.0;" x1="1034.5" x2="1034.5" y1="281.1953" y2="291.1953"/><line style="stroke: #A80036; stroke-width: 1.0;" x1="1044.5" x2="1034.5" y1="291.1953" y2="291.1953"/><text fill="#000000" font-family="sans-serif" font-size="13" font-weight="bold" lengthAdjust="spacingAndGlyphs" textLength="52" x="807.5" y="298.7637">安排心得</text><line style="stroke: #A80036; stroke-width: 1.0;" x1="801.5" x2="1044.5" y1="306.5059" y2="306.5059"/><line style="stroke: #A80036; stroke-width: 1.0;" x1="801.5" x2="1044.5" y1="308.5059" y2="308.5059"/><ellipse cx="813" cy="319.3164" fill="#000000" rx="2.5" ry="2.5" style="stroke: #000000; stroke-width: 0.0;"/><text fill="#000000" font-family="sans-serif" font-size="13" lengthAdjust="spacingAndGlyphs" textLength="169" x="818.5" y="324.0742">已安排的事，必須於該天辦妥</text><ellipse cx="813" cy="334.627" fill="#000000" rx="2.5" ry="2.5" style="stroke: #000000; stroke-width: 0.0;"/><text fill="#000000" font-family="sans-serif" font-size="13" lengthAdjust="spacingAndGlyphs" textLength="117" x="818.5" y="339.3848">盡用每天的工作時間</text><ellipse cx="813" cy="349.9375" fill="#000000" rx="2.5" ry="2.5" style="stroke: #000000; stroke-width: 0.0;"/><text fill="#000000" font-family="sans-serif" font-size="13" lengthAdjust="spacingAndGlyphs" textLength="211" x="818.5" y="354.6953">每科應用15分鐘回顧及整理當天所學</text><ellipse cx="813" cy="365.248" fill="#000000" rx="2.5" ry="2.5" style="stroke: #000000; stroke-width: 0.0;"/><text fill="#000000" font-family="sans-serif" font-size="13" lengthAdjust="spacingAndGlyphs" textLength="91" x="818.5" y="370.0059">功課應及早完成</text><rect fill="#FEFECE" filter="url(#f1)" height="34.1328" rx="12.5" ry="12.5" style="stroke: #A80036; stroke-width: 1.5;" width="152" x="629.5" y="312.4053"/><text fill="#000000" font-family="sans-serif" font-size="12" lengthAdjust="spacingAndGlyphs" textLength="24" x="639.5" y="334.0068">安排</text><text fill="#000000" font-family="sans-serif" font-size="12" font-style="italic" font-weight="bold" lengthAdjust="spacingAndGlyphs" text-decoration="underline" textLength="24" x="663.5" y="334.0068">所有</text><line style="stroke: #000000; stroke-width: 1.0;" x1="663.5" x2="687.5" y1="336.0068" y2="336.0068"/><text fill="#000000" font-family="sans-serif" font-size="12" lengthAdjust="spacingAndGlyphs" textLength="84" x="687.5" y="334.0068">工作的開始日期</text><polygon fill="#FEFECE" filter="url(#f1)" points="678,397.748,733,397.748,745,409.748,733,421.748,678,421.748,666,409.748,678,397.748" style="stroke: #A80036; stroke-width: 1.5;"/><text fill="#000000" font-family="sans-serif" font-size="11" lengthAdjust="spacingAndGlyphs" textLength="55" x="678" y="413.9053">今天的工作</text><text fill="#000000" font-family="sans-serif" font-size="11" lengthAdjust="spacingAndGlyphs" textLength="18" x="648" y="407.4277">yes</text><text fill="#000000" font-family="sans-serif" font-size="11" lengthAdjust="spacingAndGlyphs" textLength="14" x="745" y="407.4277">no</text><polygon fill="#FBFB77" filter="url(#f1)" points="84,431.748,84,645.4746,338,645.4746,338,441.748,328,431.748,84,431.748" style="stroke: #A80036; stroke-width: 1.0;"/><polygon fill="#FBFB77" points="84,431.748,84,645.4746,338,645.4746,338,542.6113,358,538.6113,338,534.6113,338,441.748,328,431.748,84,431.748" style="stroke: #A80036; stroke-width: 1.0;"/><line style="stroke: #A80036; stroke-width: 1.0;" x1="328" x2="328" y1="431.748" y2="441.748"/><line style="stroke: #A80036; stroke-width: 1.0;" x1="338" x2="328" y1="441.748" y2="441.748"/><text fill="#000000" font-family="sans-serif" font-size="13" font-weight="bold" lengthAdjust="spacingAndGlyphs" textLength="58" x="90" y="449.3164">Example</text><line style="stroke: #A80036; stroke-width: 1.0;" x1="84" x2="338" y1="457.0586" y2="457.0586"/><line style="stroke: #A80036; stroke-width: 1.0;" x1="84" x2="338" y1="459.0586" y2="459.0586"/><ellipse cx="95.5" cy="469.8691" fill="#000000" rx="2.5" ry="2.5" style="stroke: #000000; stroke-width: 0.0;"/><text fill="#000000" font-family="sans-serif" font-size="13" lengthAdjust="spacingAndGlyphs" textLength="147" x="101" y="474.627">各科revision ~ 45mins (</text><text fill="#000000" font-family="sans-serif" font-size="13" font-style="italic" font-weight="bold" lengthAdjust="spacingAndGlyphs" textLength="52" x="248" y="474.627">指定動作</text><text fill="#000000" font-family="sans-serif" font-size="13" lengthAdjust="spacingAndGlyphs" textLength="4" x="300" y="474.627">)</text><ellipse cx="95.5" cy="485.1797" fill="#000000" rx="2.5" ry="2.5" style="stroke: #000000; stroke-width: 0.0;"/><text fill="#000000" font-family="sans-serif" font-size="13" lengthAdjust="spacingAndGlyphs" textLength="165" x="101" y="489.9375">Math HW (5條數) ~ 40mins</text><ellipse cx="95.5" cy="500.4902" fill="#000000" rx="2.5" ry="2.5" style="stroke: #000000; stroke-width: 0.0;"/><text fill="#000000" font-family="sans-serif" font-size="13" lengthAdjust="spacingAndGlyphs" textLength="174" x="101" y="505.248">LS HW (2條 essay) ~ 30mins</text><ellipse cx="95.5" cy="515.8008" fill="#000000" rx="2.5" ry="2.5" style="stroke: #000000; stroke-width: 0.0;"/><text fill="#000000" font-family="sans-serif" font-size="13" lengthAdjust="spacingAndGlyphs" textLength="142" x="101" y="520.5586">Eng 測驗準備 ~ 30mins</text><text fill="#000000" font-family="sans-serif" font-size="13" lengthAdjust="spacingAndGlyphs" textLength="12" x="90" y="535.8691">...</text><line style="stroke: #A80036; stroke-width: 1.0;" x1="84" x2="338" y1="543.6113" y2="543.6113"/><line style="stroke: #A80036; stroke-width: 1.0;" x1="84" x2="338" y1="545.6113" y2="545.6113"/><ellipse cx="95.5" cy="556.4219" fill="#000000" rx="2.5" ry="2.5" style="stroke: #000000; stroke-width: 0.0;"/><text fill="#000000" font-family="sans-serif" font-size="13" lengthAdjust="spacingAndGlyphs" textLength="222" x="101" y="561.1797">蕃茄1: Math + Eng + Chem revision</text><ellipse cx="95.5" cy="571.7324" fill="#000000" rx="2.5" ry="2.5" style="stroke: #000000; stroke-width: 0.0;"/><text fill="#000000" font-family="sans-serif" font-size="13" lengthAdjust="spacingAndGlyphs" textLength="196" x="101" y="576.4902">蕃茄2: 中文 revision + Math 2條</text><ellipse cx="95.5" cy="587.043" fill="#000000" rx="2.5" ry="2.5" style="stroke: #000000; stroke-width: 0.0;"/><text fill="#000000" font-family="sans-serif" font-size="13" lengthAdjust="spacingAndGlyphs" textLength="155" x="101" y="591.8008">蕃茄3: Math 3條 + LS 1條</text><ellipse cx="95.5" cy="602.3535" fill="#000000" rx="2.5" ry="2.5" style="stroke: #000000; stroke-width: 0.0;"/><text fill="#000000" font-family="sans-serif" font-size="13" lengthAdjust="spacingAndGlyphs" textLength="178" x="101" y="607.1113">蕃茄4: LS 1條 + Eng 測驗準備</text><ellipse cx="95.5" cy="617.6641" fill="#000000" rx="2.5" ry="2.5" style="stroke: #000000; stroke-width: 0.0;"/><text fill="#000000" font-family="sans-serif" font-size="13" lengthAdjust="spacingAndGlyphs" textLength="151" x="101" y="622.4219">蕃茄5: Eng 測驗準備 + ...</text><text fill="#000000" font-family="sans-serif" font-size="13" lengthAdjust="spacingAndGlyphs" textLength="12" x="90" y="637.7324">...</text><rect fill="#FEFECE" filter="url(#f1)" height="72.3984" rx="12.5" ry="12.5" style="stroke: #A80036; stroke-width: 1.5;" width="313" x="358" y="502.4121"/><text fill="#000000" font-family="sans-serif" font-size="12" font-style="italic" font-weight="bold" lengthAdjust="spacingAndGlyphs" textLength="84" x="368" y="524.0137">今天的工作清單</text><line style="stroke: #A80036; stroke-width: 1.0;" x1="358" x2="671" y1="531.5449" y2="531.5449"/><line style="stroke: #A80036; stroke-width: 1.0;" x1="358" x2="671" y1="533.5449" y2="533.5449"/><ellipse cx="373.5" cy="543.1777" fill="#000000" rx="2.5" ry="2.5" style="stroke: #000000; stroke-width: 0.0;"/><text fill="#000000" font-family="sans-serif" font-size="12" lengthAdjust="spacingAndGlyphs" textLength="259" x="378" y="548.1465">將工作以25mins為一時段劃分，每個時段為一個</text><text fill="#000000" font-family="sans-serif" font-size="12" font-style="italic" font-weight="bold" lengthAdjust="spacingAndGlyphs" textLength="24" x="637" y="548.1465">蕃茄</text><ellipse cx="373.5" cy="557.3105" fill="#000000" rx="2.5" ry="2.5" style="stroke: #000000; stroke-width: 0.0;"/><text fill="#000000" font-family="sans-serif" font-size="12" lengthAdjust="spacingAndGlyphs" textLength="120" x="378" y="562.2793">將所有蕃茄內容寫好在</text><text fill="#000000" font-family="sans-serif" font-size="12" font-style="italic" font-weight="bold" lengthAdjust="spacingAndGlyphs" textLength="48" x="498" y="562.2793">工作清單</text><text fill="#000000" font-family="sans-serif" font-size="12" lengthAdjust="spacingAndGlyphs" textLength="12" x="546" y="562.2793">上</text><rect fill="#FFFFFF" filter="url(#f1)" height="475.1523" style="stroke: #000000; stroke-width: 2.0;" width="596" x="216.5" y="700.4746"/><path d="M282.5,701.4746 L282.5,707.4746 L272.5,717.4746 L216.5,717.4746 " fill="#FFFFFF" style="stroke: #000000; stroke-width: 2.0;"/><text fill="#000000" font-family="Serif" font-size="14" lengthAdjust="spacingAndGlyphs" textLength="56" x="219.5" y="711.9746">集中工作</text><rect fill="#FEFECE" filter="url(#f1)" height="34.1328" rx="12.5" ry="12.5" style="stroke: #A80036; stroke-width: 1.5;" width="103" x="463" y="734.4746"/><text fill="#000000" font-family="sans-serif" font-size="12" font-style="italic" font-weight="bold" lengthAdjust="spacingAndGlyphs" textLength="83" x="473" y="756.0762">計時 (25mins)</text><polygon fill="#FBFB77" filter="url(#f1)" points="277.5,803.6074,277.5,844.2285,442.5,844.2285,442.5,813.6074,432.5,803.6074,277.5,803.6074" style="stroke: #A80036; stroke-width: 1.0;"/><polygon fill="#FBFB77" points="277.5,803.6074,277.5,844.2285,442.5,844.2285,442.5,827.918,462.5,823.918,442.5,819.918,442.5,813.6074,432.5,803.6074,277.5,803.6074" style="stroke: #A80036; stroke-width: 1.0;"/><line style="stroke: #A80036; stroke-width: 1.0;" x1="432.5" x2="432.5" y1="803.6074" y2="813.6074"/><line style="stroke: #A80036; stroke-width: 1.0;" x1="442.5" x2="432.5" y1="813.6074" y2="813.6074"/><ellipse cx="289" cy="816.418" fill="#000000" rx="2.5" ry="2.5" style="stroke: #000000; stroke-width: 0.0;"/><text fill="#000000" font-family="sans-serif" font-size="13" lengthAdjust="spacingAndGlyphs" textLength="117" x="294.5" y="821.1758">要一氣呵成完成蕃茄</text><ellipse cx="289" cy="831.7285" fill="#000000" rx="2.5" ry="2.5" style="stroke: #000000; stroke-width: 0.0;"/><text fill="#000000" font-family="sans-serif" font-size="13" lengthAdjust="spacingAndGlyphs" textLength="133" x="294.5" y="836.4863">別管你的手機message</text><rect fill="#FEFECE" filter="url(#f1)" height="34.1328" rx="12.5" ry="12.5" style="stroke: #A80036; stroke-width: 1.5;" width="104" x="462.5" y="806.8516"/><text fill="#000000" font-family="sans-serif" font-size="12" lengthAdjust="spacingAndGlyphs" textLength="36" x="472.5" y="828.4531">專注將</text><text fill="#000000" font-family="sans-serif" font-size="12" font-style="italic" font-weight="bold" lengthAdjust="spacingAndGlyphs" textLength="24" x="508.5" y="828.4531">蕃茄</text><text fill="#000000" font-family="sans-serif" font-size="12" lengthAdjust="spacingAndGlyphs" textLength="24" x="532.5" y="828.4531">完成</text><rect fill="#FEFECE" filter="url(#f1)" height="34.1328" rx="12.5" ry="12.5" style="stroke: #A80036; stroke-width: 1.5;" width="105" x="240.5" y="1000.3613"/><text fill="#000000" font-family="sans-serif" font-size="12" lengthAdjust="spacingAndGlyphs" textLength="24" x="250.5" y="1021.9629">於該</text><text fill="#000000" font-family="sans-serif" font-size="12" font-style="italic" font-weight="bold" lengthAdjust="spacingAndGlyphs" textLength="24" x="274.5" y="1021.9629">蕃茄</text><text fill="#000000" font-family="sans-serif" font-size="12" lengthAdjust="spacingAndGlyphs" textLength="37" x="298.5" y="1021.9629">加上 ✓</text><rect fill="#FEFECE" filter="url(#f1)" height="34.1328" rx="12.5" ry="12.5" style="stroke: #A80036; stroke-width: 1.5;" width="103" x="373.5" y="965.7949"/><text fill="#000000" font-family="sans-serif" font-size="12" lengthAdjust="spacingAndGlyphs" textLength="24" x="383.5" y="987.3965">於該</text><text fill="#000000" font-family="sans-serif" font-size="12" font-style="italic" font-weight="bold" lengthAdjust="spacingAndGlyphs" textLength="24" x="407.5" y="987.3965">蕃茄</text><text fill="#000000" font-family="sans-serif" font-size="12" lengthAdjust="spacingAndGlyphs" textLength="35" x="431.5" y="987.3965">加上 ○</text><rect fill="#FEFECE" filter="url(#f1)" height="34.1328" rx="12.5" ry="12.5" style="stroke: #A80036; stroke-width: 1.5;" width="92" x="379" y="1034.9277"/><text fill="#000000" font-family="sans-serif" font-size="12" font-style="italic" font-weight="bold" lengthAdjust="spacingAndGlyphs" textLength="24" x="389" y="1056.5293">修改</text><text fill="#000000" font-family="sans-serif" font-size="12" lengthAdjust="spacingAndGlyphs" textLength="48" x="413" y="1056.5293">工作清單</text><polygon fill="#FEFECE" filter="url(#f1)" points="631.5,899.2285,655.5,899.2285,667.5,911.2285,655.5,923.2285,631.5,923.2285,619.5,911.2285,631.5,899.2285" style="stroke: #A80036; stroke-width: 1.5;"/><text fill="#000000" font-family="sans-serif" font-size="11" lengthAdjust="spacingAndGlyphs" textLength="22" x="632.5" y="915.3857">緊急</text><text fill="#000000" font-family="sans-serif" font-size="11" lengthAdjust="spacingAndGlyphs" textLength="14" x="605.5" y="908.9082">no</text><text fill="#000000" font-family="sans-serif" font-size="11" lengthAdjust="spacingAndGlyphs" textLength="18" x="667.5" y="908.9082">yes</text><rect fill="#FEFECE" filter="url(#f1)" height="48.2656" rx="12.5" ry="12.5" style="stroke: #A80036; stroke-width: 1.5;" width="116" x="514.5" y="933.2285"/><text fill="#000000" font-family="sans-serif" font-size="12" lengthAdjust="spacingAndGlyphs" textLength="84" x="524.5" y="954.8301">記下這件事情，</text><text fill="#000000" font-family="sans-serif" font-size="12" lengthAdjust="spacingAndGlyphs" textLength="48" x="524.5" y="968.9629">完成蕃茄</text><text fill="#000000" font-family="sans-serif" font-size="12" font-style="italic" font-weight="bold" lengthAdjust="spacingAndGlyphs" textLength="12" x="572.5" y="968.9629">後</text><text fill="#000000" font-family="sans-serif" font-size="12" lengthAdjust="spacingAndGlyphs" textLength="36" x="584.5" y="968.9629">再處理</text><rect fill="#FEFECE" filter="url(#f1)" height="34.1328" rx="12.5" ry="12.5" style="stroke: #A80036; stroke-width: 1.5;" width="99" x="665" y="933.2285"/><text fill="#000000" font-family="sans-serif" font-size="12" lengthAdjust="spacingAndGlyphs" textLength="24" x="675" y="954.8301">於該</text><text fill="#000000" font-family="sans-serif" font-size="12" font-style="italic" font-weight="bold" lengthAdjust="spacingAndGlyphs" textLength="24" x="699" y="954.8301">蕃茄</text><text fill="#000000" font-family="sans-serif" font-size="12" lengthAdjust="spacingAndGlyphs" textLength="31" x="723" y="954.8301">加上✗</text><rect fill="#FEFECE" filter="url(#f1)" height="34.1328" rx="12.5" ry="12.5" style="stroke: #A80036; stroke-width: 1.5;" width="104" x="662.5" y="1002.3613"/><text fill="#000000" font-family="sans-serif" font-size="12" lengthAdjust="spacingAndGlyphs" textLength="84" x="672.5" y="1023.9629">去完成這件事情</text><rect fill="#FEFECE" filter="url(#f1)" height="34.1328" rx="12.5" ry="12.5" style="stroke: #A80036; stroke-width: 1.5;" width="128" x="650.5" y="1071.4941"/><text fill="#000000" font-family="sans-serif" font-size="12" font-style="italic" font-weight="bold" lengthAdjust="spacingAndGlyphs" textLength="48" x="660.5" y="1093.0957">重新開始</text><text fill="#000000" font-family="sans-serif" font-size="12" lengthAdjust="spacingAndGlyphs" textLength="60" x="708.5" y="1093.0957">同一個番茄</text><polygon fill="#FEFECE" filter="url(#f1)" points="643.5,1111.627,655.5,1123.627,643.5,1135.627,631.5,1123.627,643.5,1111.627" style="stroke: #A80036; stroke-width: 1.5;"/><rect fill="#FFFFFF" filter="url(#f1)" height="221.2656" style="stroke: #000000; stroke-width: 2.0;" width="243.5" x="394" y="1186.627"/><path d="M432,1187.627 L432,1193.627 L422,1203.627 L394,1203.627 " fill="#FFFFFF" style="stroke: #000000; stroke-width: 2.0;"/><text fill="#000000" font-family="Serif" font-size="14" lengthAdjust="spacingAndGlyphs" textLength="28" x="397" y="1198.127">休息</text><rect fill="#FEFECE" filter="url(#f1)" height="34.1328" rx="12.5" ry="12.5" style="stroke: #A80036; stroke-width: 1.5;" width="44" x="492.5" y="1220.627"/><text fill="#000000" font-family="sans-serif" font-size="12" font-style="italic" font-weight="bold" lengthAdjust="spacingAndGlyphs" textLength="24" x="502.5" y="1242.2285">計時</text><polygon fill="#FEFECE" filter="url(#f1)" points="475.5,1289.7598,553.5,1289.7598,565.5,1301.7598,553.5,1313.7598,475.5,1313.7598,463.5,1301.7598,475.5,1289.7598" style="stroke: #A80036; stroke-width: 1.5;"/><text fill="#000000" font-family="sans-serif" font-size="11" lengthAdjust="spacingAndGlyphs" textLength="78" x="475.5" y="1305.917">每完成4個蕃茄?</text><text fill="#000000" font-family="sans-serif" font-size="11" lengthAdjust="spacingAndGlyphs" textLength="14" x="449.5" y="1299.4395">no</text><text fill="#000000" font-family="sans-serif" font-size="11" lengthAdjust="spacingAndGlyphs" textLength="18" x="565.5" y="1299.4395">yes</text><rect fill="#FEFECE" filter="url(#f1)" height="34.1328" rx="12.5" ry="12.5" style="stroke: #A80036; stroke-width: 1.5;" width="79" x="414" y="1323.7598"/><text fill="#000000" font-family="sans-serif" font-size="12" lengthAdjust="spacingAndGlyphs" textLength="59" x="424" y="1345.3613">休息5mins</text><rect fill="#FEFECE" filter="url(#f1)" height="34.1328" rx="12.5" ry="12.5" style="stroke: #A80036; stroke-width: 1.5;" width="84" x="533.5" y="1323.7598"/><text fill="#000000" font-family="sans-serif" font-size="12" lengthAdjust="spacingAndGlyphs" textLength="64" x="543.5" y="1345.3613">休息15分鐘</text><polygon fill="#FEFECE" filter="url(#f1)" points="514.5,1363.8926,526.5,1375.8926,514.5,1387.8926,502.5,1375.8926,514.5,1363.8926" style="stroke: #A80036; stroke-width: 1.5;"/><polygon fill="#FEFECE" filter="url(#f1)" points="514.5,665.4746,526.5,677.4746,514.5,689.4746,502.5,677.4746,514.5,665.4746" style="stroke: #A80036; stroke-width: 1.5;"/><polygon fill="#FEFECE" filter="url(#f1)" points="470.5,1427.8926,558.5,1427.8926,570.5,1439.8926,558.5,1451.8926,470.5,1451.8926,458.5,1439.8926,470.5,1427.8926" style="stroke: #A80036; stroke-width: 1.5;"/><text fill="#000000" font-family="sans-serif" font-size="11" lengthAdjust="spacingAndGlyphs" textLength="88" x="470.5" y="1444.0498">尚有蕃茄未完成？</text><text fill="#000000" font-family="sans-serif" font-size="11" lengthAdjust="spacingAndGlyphs" textLength="18" x="570.5" y="1437.5723">yes</text><rect fill="#FEFECE" filter="url(#f1)" height="34.1328" rx="12.5" ry="12.5" style="stroke: #A80036; stroke-width: 1.5;" width="236" x="396.5" y="1493.168"/><text fill="#000000" font-family="sans-serif" font-size="12" lengthAdjust="spacingAndGlyphs" textLength="216" x="406.5" y="1514.7695">每天統計所完成的蕃茄數目，記在行事曆</text><rect fill="#FEFECE" filter="url(#f1)" height="34.1328" rx="12.5" ry="12.5" style="stroke: #A80036; stroke-width: 1.5;" width="104" x="462.5" y="1547.3008"/><text fill="#000000" font-family="sans-serif" font-size="12" lengthAdjust="spacingAndGlyphs" textLength="84" x="472.5" y="1568.9023">每星期檢討成果</text><ellipse cx="514.5" cy="1611.4336" fill="none" filter="url(#f1)" rx="10" ry="10" style="stroke: #000000; stroke-width: 1.0;"/><ellipse cx="515" cy="1611.9336" fill="#000000" filter="url(#f1)" rx="6" ry="6" style="stroke: none; stroke-width: 1.0;"/><rect fill="#FEFECE" filter="url(#f1)" height="34.1328" rx="12.5" ry="12.5" style="stroke: #A80036; stroke-width: 1.5;" width="80" x="856.5" y="431.748"/><text fill="#000000" font-family="sans-serif" font-size="12" lengthAdjust="spacingAndGlyphs" textLength="60" x="866.5" y="453.3496">加入行事曆</text><ellipse cx="896.5" cy="510.8809" fill="none" filter="url(#f1)" rx="10" ry="10" style="stroke: #000000; stroke-width: 1.0;"/><ellipse cx="897" cy="511.3809" fill="#000000" filter="url(#f1)" rx="6" ry="6" style="stroke: none; stroke-width: 1.0;"/><line style="stroke: #A80036; stroke-width: 1.5;" x1="368.75" x2="368.75" y1="51.1992" y2="100.0645"/><polygon fill="#A80036" points="364.75,90.0645,368.75,100.0645,372.75,90.0645,368.75,94.0645" style="stroke: #A80036; stroke-width: 1.0;"/><line style="stroke: #A80036; stroke-width: 1.5;" x1="368.75" x2="368.75" y1="134.1973" y2="193.0625"/><polygon fill="#A80036" points="364.75,183.0625,368.75,193.0625,372.75,183.0625,368.75,187.0625" style="stroke: #A80036; stroke-width: 1.0;"/><line style="stroke: #A80036; stroke-width: 1.5;" x1="32" x2="32" y1="315.3281" y2="350.3281"/><polygon fill="#A80036" points="28,340.3281,32,350.3281,36,340.3281,32,344.3281" style="stroke: #A80036; stroke-width: 1.0;"/><line style="stroke: #A80036; stroke-width: 1.5;" x1="514.5" x2="514.5" y1="768.6074" y2="806.8516"/><polygon fill="#A80036" points="510.5,796.8516,514.5,806.8516,518.5,796.8516,514.5,800.8516" style="stroke: #A80036; stroke-width: 1.0;"/><line style="stroke: #A80036; stroke-width: 1.5;" x1="425" x2="425" y1="999.9277" y2="1034.9277"/><polygon fill="#A80036" points="421,1024.9277,425,1034.9277,429,1024.9277,425,1028.9277" style="stroke: #A80036; stroke-width: 1.0;"/><line style="stroke: #A80036; stroke-width: 1.5;" x1="714.5" x2="714.5" y1="967.3613" y2="1002.3613"/><polygon fill="#A80036" points="710.5,992.3613,714.5,1002.3613,718.5,992.3613,714.5,996.3613" style="stroke: #A80036; stroke-width: 1.0;"/><line style="stroke: #A80036; stroke-width: 1.5;" x1="714.5" x2="714.5" y1="1036.4941" y2="1071.4941"/><polygon fill="#A80036" points="710.5,1061.4941,714.5,1071.4941,718.5,1061.4941,714.5,1065.4941" style="stroke: #A80036; stroke-width: 1.0;"/><line style="stroke: #A80036; stroke-width: 1.5;" x1="619.5" x2="572.5" y1="911.2285" y2="911.2285"/><line style="stroke: #A80036; stroke-width: 1.5;" x1="572.5" x2="572.5" y1="911.2285" y2="933.2285"/><polygon fill="#A80036" points="568.5,923.2285,572.5,933.2285,576.5,923.2285,572.5,927.2285" style="stroke: #A80036; stroke-width: 1.0;"/><line style="stroke: #A80036; stroke-width: 1.5;" x1="667.5" x2="714.5" y1="911.2285" y2="911.2285"/><line style="stroke: #A80036; stroke-width: 1.5;" x1="714.5" x2="714.5" y1="911.2285" y2="933.2285"/><polygon fill="#A80036" points="710.5,923.2285,714.5,933.2285,718.5,923.2285,714.5,927.2285" style="stroke: #A80036; stroke-width: 1.0;"/><line style="stroke: #A80036; stroke-width: 1.5;" x1="572.5" x2="572.5" y1="981.4941" y2="1123.627"/><line style="stroke: #A80036; stroke-width: 1.5;" x1="572.5" x2="631.5" y1="1123.627" y2="1123.627"/><polygon fill="#A80036" points="621.5,1119.627,631.5,1123.627,621.5,1127.627,625.5,1123.627" style="stroke: #A80036; stroke-width: 1.0;"/><line style="stroke: #A80036; stroke-width: 1.5;" x1="714.5" x2="714.5" y1="1105.627" y2="1123.627"/><line style="stroke: #A80036; stroke-width: 1.5;" x1="714.5" x2="655.5" y1="1123.627" y2="1123.627"/><polygon fill="#A80036" points="665.5,1119.627,655.5,1123.627,665.5,1127.627,661.5,1123.627" style="stroke: #A80036; stroke-width: 1.0;"/><line style="stroke: #A80036; stroke-width: 1.5;" x1="293" x2="293" y1="879.2285" y2="1000.3613"/><polygon fill="#A80036" points="289,990.3613,293,1000.3613,297,990.3613,293,994.3613" style="stroke: #A80036; stroke-width: 1.0;"/><text fill="#000000" font-family="sans-serif" font-size="11" lengthAdjust="spacingAndGlyphs" textLength="75" x="297" y="937.4746">順利完成蕃茄 /</text><text fill="#000000" font-family="sans-serif" font-size="11" lengthAdjust="spacingAndGlyphs" textLength="44" x="297" y="950.4297">提早完成</text><line style="stroke: #A80036; stroke-width: 1.5;" x1="293" x2="293" y1="1034.4941" y2="1155.627"/><polygon fill="#A80036" points="289,1145.627,293,1155.627,297,1145.627,293,1149.627" style="stroke: #A80036; stroke-width: 1.0;"/><line style="stroke: #A80036; stroke-width: 1.5;" x1="425" x2="425" y1="879.2285" y2="965.7949"/><polygon fill="#A80036" points="421,955.7949,425,965.7949,429,955.7949,425,959.7949" style="stroke: #A80036; stroke-width: 1.0;"/><text fill="#000000" font-family="sans-serif" font-size="11" lengthAdjust="spacingAndGlyphs" textLength="66" x="429" y="926.6689">未能完成蕃茄</text><line style="stroke: #A80036; stroke-width: 1.5;" x1="425" x2="425" y1="1069.0605" y2="1155.627"/><polygon fill="#A80036" points="421,1145.627,425,1155.627,429,1145.627,425,1149.627" style="stroke: #A80036; stroke-width: 1.0;"/><line style="stroke: #A80036; stroke-width: 1.5;" x1="643.5" x2="643.5" y1="879.2285" y2="899.2285"/><polygon fill="#A80036" points="639.5,889.2285,643.5,899.2285,647.5,889.2285,643.5,893.2285" style="stroke: #A80036; stroke-width: 1.0;"/><text fill="#000000" font-family="sans-serif" font-size="11" lengthAdjust="spacingAndGlyphs" textLength="44" x="647.5" y="893.3857">受到打擾</text><line style="stroke: #A80036; stroke-width: 1.5;" x1="643.5" x2="643.5" y1="1135.627" y2="1155.627"/><polygon fill="#A80036" points="639.5,1145.627,643.5,1155.627,647.5,1145.627,643.5,1149.627" style="stroke: #A80036; stroke-width: 1.0;"/><line style="stroke: #A80036; stroke-width: 1.5;" x1="293" x2="643.5" y1="879.2285" y2="879.2285"/><line style="stroke: #A80036; stroke-width: 1.5;" x1="293" x2="643.5" y1="1155.627" y2="1155.627"/><line style="stroke: #A80036; stroke-width: 1.5;" x1="514.5" x2="514.5" y1="840.9844" y2="879.2285"/><polygon fill="#A80036" points="510.5,869.2285,514.5,879.2285,518.5,869.2285,514.5,873.2285" style="stroke: #A80036; stroke-width: 1.0;"/><line style="stroke: #A80036; stroke-width: 1.5;" x1="463.5" x2="453.5" y1="1301.7598" y2="1301.7598"/><line style="stroke: #A80036; stroke-width: 1.5;" x1="453.5" x2="453.5" y1="1301.7598" y2="1323.7598"/><polygon fill="#A80036" points="449.5,1313.7598,453.5,1323.7598,457.5,1313.7598,453.5,1317.7598" style="stroke: #A80036; stroke-width: 1.0;"/><line style="stroke: #A80036; stroke-width: 1.5;" x1="565.5" x2="575.5" y1="1301.7598" y2="1301.7598"/><line style="stroke: #A80036; stroke-width: 1.5;" x1="575.5" x2="575.5" y1="1301.7598" y2="1323.7598"/><polygon fill="#A80036" points="571.5,1313.7598,575.5,1323.7598,579.5,1313.7598,575.5,1317.7598" style="stroke: #A80036; stroke-width: 1.0;"/><line style="stroke: #A80036; stroke-width: 1.5;" x1="453.5" x2="453.5" y1="1357.8926" y2="1375.8926"/><line style="stroke: #A80036; stroke-width: 1.5;" x1="453.5" x2="502.5" y1="1375.8926" y2="1375.8926"/><polygon fill="#A80036" points="492.5,1371.8926,502.5,1375.8926,492.5,1379.8926,496.5,1375.8926" style="stroke: #A80036; stroke-width: 1.0;"/><line style="stroke: #A80036; stroke-width: 1.5;" x1="575.5" x2="575.5" y1="1357.8926" y2="1375.8926"/><line style="stroke: #A80036; stroke-width: 1.5;" x1="575.5" x2="526.5" y1="1375.8926" y2="1375.8926"/><polygon fill="#A80036" points="536.5,1371.8926,526.5,1375.8926,536.5,1379.8926,532.5,1375.8926" style="stroke: #A80036; stroke-width: 1.0;"/><line style="stroke: #A80036; stroke-width: 1.5;" x1="514.5" x2="514.5" y1="1254.7598" y2="1289.7598"/><polygon fill="#A80036" points="510.5,1279.7598,514.5,1289.7598,518.5,1279.7598,514.5,1283.7598" style="stroke: #A80036; stroke-width: 1.0;"/><line style="stroke: #A80036; stroke-width: 1.5;" x1="514.5" x2="514.5" y1="1155.627" y2="1220.627"/><polygon fill="#A80036" points="510.5,1210.627,514.5,1220.627,518.5,1210.627,514.5,1214.627" style="stroke: #A80036; stroke-width: 1.0;"/><line style="stroke: #A80036; stroke-width: 1.5;" x1="514.5" x2="514.5" y1="689.4746" y2="734.4746"/><polygon fill="#A80036" points="510.5,724.4746,514.5,734.4746,518.5,724.4746,514.5,728.4746" style="stroke: #A80036; stroke-width: 1.0;"/><line style="stroke: #A80036; stroke-width: 1.5;" x1="570.5" x2="824.5" y1="1439.8926" y2="1439.8926"/><polygon fill="#A80036" points="820.5,1100.1836,824.5,1090.1836,828.5,1100.1836,824.5,1096.1836" style="stroke: #A80036; stroke-width: 1.5;"/><line style="stroke: #A80036; stroke-width: 1.5;" x1="824.5" x2="824.5" y1="677.4746" y2="1439.8926"/><line style="stroke: #A80036; stroke-width: 1.5;" x1="824.5" x2="526.5" y1="677.4746" y2="677.4746"/><polygon fill="#A80036" points="536.5,673.4746,526.5,677.4746,536.5,681.4746,532.5,677.4746" style="stroke: #A80036; stroke-width: 1.0;"/><line style="stroke: #A80036; stroke-width: 1.5;" x1="514.5" x2="514.5" y1="1387.8926" y2="1427.8926"/><polygon fill="#A80036" points="510.5,1417.8926,514.5,1427.8926,518.5,1417.8926,514.5,1421.8926" style="stroke: #A80036; stroke-width: 1.0;"/><line style="stroke: #A80036; stroke-width: 1.5;" x1="514.5" x2="514.5" y1="574.8105" y2="665.4746"/><polygon fill="#A80036" points="510.5,655.4746,514.5,665.4746,518.5,655.4746,514.5,659.4746" style="stroke: #A80036; stroke-width: 1.0;"/><line style="stroke: #A80036; stroke-width: 1.5;" x1="514.5" x2="514.5" y1="1451.8926" y2="1493.168"/><polygon fill="#A80036" points="510.5,1483.168,514.5,1493.168,518.5,1483.168,514.5,1487.168" style="stroke: #A80036; stroke-width: 1.0;"/><text fill="#000000" font-family="sans-serif" font-size="11" lengthAdjust="spacingAndGlyphs" textLength="14" x="518.5" y="1473.3477">no</text><line style="stroke: #A80036; stroke-width: 1.5;" x1="514.5" x2="514.5" y1="1527.3008" y2="1547.3008"/><polygon fill="#A80036" points="510.5,1537.3008,514.5,1547.3008,518.5,1537.3008,514.5,1541.3008" style="stroke: #A80036; stroke-width: 1.0;"/><line style="stroke: #A80036; stroke-width: 1.5;" x1="514.5" x2="514.5" y1="1581.4336" y2="1601.4336"/><polygon fill="#A80036" points="510.5,1591.4336,514.5,1601.4336,518.5,1591.4336,514.5,1595.4336" style="stroke: #A80036; stroke-width: 1.0;"/><line style="stroke: #A80036; stroke-width: 1.5;" x1="896.5" x2="896.5" y1="465.8809" y2="500.8809"/><polygon fill="#A80036" points="892.5,490.8809,896.5,500.8809,900.5,490.8809,896.5,494.8809" style="stroke: #A80036; stroke-width: 1.0;"/><line style="stroke: #A80036; stroke-width: 1.5;" x1="666" x2="514.5" y1="409.748" y2="409.748"/><line style="stroke: #A80036; stroke-width: 1.5;" x1="514.5" x2="514.5" y1="409.748" y2="502.4121"/><polygon fill="#A80036" points="510.5,492.4121,514.5,502.4121,518.5,492.4121,514.5,496.4121" style="stroke: #A80036; stroke-width: 1.0;"/><line style="stroke: #A80036; stroke-width: 1.5;" x1="745" x2="896.5" y1="409.748" y2="409.748"/><line style="stroke: #A80036; stroke-width: 1.5;" x1="896.5" x2="896.5" y1="409.748" y2="431.748"/><polygon fill="#A80036" points="892.5,421.748,896.5,431.748,900.5,421.748,896.5,425.748" style="stroke: #A80036; stroke-width: 1.0;"/><line style="stroke: #A80036; stroke-width: 1.5;" x1="705.5" x2="705.5" y1="346.5381" y2="397.748"/><polygon fill="#A80036" points="701.5,387.748,705.5,397.748,709.5,387.748,705.5,391.748" style="stroke: #A80036; stroke-width: 1.0;"/><line style="stroke: #A80036; stroke-width: 1.5;" x1="325.75" x2="32" y1="259.1953" y2="259.1953"/><line style="stroke: #A80036; stroke-width: 1.5;" x1="32" x2="32" y1="259.1953" y2="281.1953"/><polygon fill="#A80036" points="28,271.1953,32,281.1953,36,271.1953,32,275.1953" style="stroke: #A80036; stroke-width: 1.0;"/><line style="stroke: #A80036; stroke-width: 1.5;" x1="411.75" x2="705.5" y1="259.1953" y2="259.1953"/><line style="stroke: #A80036; stroke-width: 1.5;" x1="705.5" x2="705.5" y1="259.1953" y2="312.4053"/><polygon fill="#A80036" points="701.5,302.4053,705.5,312.4053,709.5,302.4053,705.5,306.4053" style="stroke: #A80036; stroke-width: 1.0;"/><line style="stroke: #A80036; stroke-width: 1.5;" x1="368.75" x2="368.75" y1="227.1953" y2="247.1953"/><polygon fill="#A80036" points="364.75,237.1953,368.75,247.1953,372.75,237.1953,368.75,241.1953" style="stroke: #A80036; stroke-width: 1.0;"/><text fill="#888888" font-family="sans-serif" font-size="10" lengthAdjust="spacingAndGlyphs" textLength="95" x="479.75" y="1631.1016">Prepared by CyrusN</text></g></svg>